<svg width="240" height="207" viewBox="0 0 240 207" fill="none" xmlns="http://www.w3.org/2000/svg">
<path d="M115.858 2.97363C117.712 -0.190983 122.287 -0.190983 124.141 2.97363L239.334 199.578C241.209 202.778 238.901 206.805 235.192 206.805H4.8075C1.09887 206.805 -1.20876 202.778 0.665894 199.578L115.858 2.97363ZM121.553 111.035C120.857 109.849 119.143 109.849 118.447 111.035L96.8739 147.854C96.1709 149.054 97.0361 150.564 98.4266 150.564H141.572C142.963 150.564 143.829 149.054 143.126 147.854L121.553 111.035Z" fill="#42A5F5"/>
<mask id="mask0_77_100" style="mask-type:alpha" maskUnits="userSpaceOnUse" x="0" y="0" width="240" height="207">
<path d="M115.858 2.97363C117.713 -0.190834 122.287 -0.190934 124.142 2.97363L239.334 199.578C241.209 202.778 238.901 206.805 235.192 206.805H4.80762C1.09892 206.805 -1.20884 202.778 0.666016 199.578L115.858 2.97363ZM121.553 111.036C120.857 109.849 119.142 109.849 118.446 111.036L96.874 147.855C96.1713 149.055 97.0363 150.565 98.4268 150.565H141.572C142.963 150.565 143.828 149.055 143.126 147.855L121.553 111.036Z" fill="#C0C0C0"/>
</mask>
<g mask="url(#mask0_77_100)">
<path d="M193.818 121.882L243.739 207.086H143.896L193.818 121.882Z" fill="#1565C0"/>
</g>
<mask id="mask1_77_100" style="mask-type:alpha" maskUnits="userSpaceOnUse" x="0" y="0" width="240" height="207">
<path d="M115.858 2.97363C117.713 -0.190834 122.287 -0.190934 124.142 2.97363L239.334 199.578C241.209 202.778 238.901 206.805 235.192 206.805H4.80762C1.09892 206.805 -1.20884 202.778 0.666016 199.578L115.858 2.97363ZM121.553 111.036C120.857 109.849 119.142 109.849 118.446 111.036L96.874 147.855C96.1713 149.055 97.0363 150.565 98.4268 150.565H141.572C142.963 150.565 143.828 149.055 143.126 147.855L121.553 111.036Z" fill="#C0C0C0"/>
</mask>
<g mask="url(#mask1_77_100)">
<path d="M210.462 150.002L243.825 206.945H177.098L210.462 150.002Z" fill="#0A4C8C"/>
</g>
</svg>
